<?xml version="1.0" encoding="utf-8"?>
<!-- Generator: Adobe Illustrator 24.3.0, SVG Export Plug-In . SVG Version: 6.00 Build 0)  -->
<svg version="1.1" id="Layer_1" xmlns="http://www.w3.org/2000/svg" xmlns:xlink="http://www.w3.org/1999/xlink" x="0px" y="0px"
	 viewBox="0 0 200 200" style="enable-background:new 0 0 200 200;" xml:space="preserve">
<style type="text/css">
	.st0{fill:url(#SVGID_1_);}
	.st1{fill:url(#SVGID_2_);}
	.st2{fill:#69BCE4;}
	.st3{fill:none;stroke:#59B469;stroke-width:3;stroke-miterlimit:10;}
	.st4{fill:url(#SVGID_3_);}
	.st5{fill:url(#SVGID_4_);}
	.st6{fill:url(#SVGID_5_);}
	.st7{fill:url(#SVGID_6_);}
</style>
<g>
	<linearGradient id="SVGID_1_" gradientUnits="userSpaceOnUse" x1="1561.7076" y1="74.5297" x2="1617.8906" y2="116.09">
		<stop  offset="8.379889e-03" style="stop-color:#AEDBE5;stop-opacity:0.9216"/>
		<stop  offset="0.5302" style="stop-color:#A9D2A4"/>
		<stop  offset="0.9689" style="stop-color:#59B469"/>
	</linearGradient>
	<path class="st0" d="M1614.67,117.39c-0.95,3.89-3.56,7.35-7.44,9.25c-6.96,3.42-15.36,0.54-18.77-6.42l-16.01-32.66
		c-3.41-6.96-0.53-15.36,6.43-18.78c1.99-0.97,4.09-1.43,6.16-1.43c5.19,0,10.18,2.89,12.62,7.86l3.21,6.56l12.79,26.1
		C1615.17,110.95,1615.45,114.31,1614.67,117.39z"/>
	<linearGradient id="SVGID_2_" gradientUnits="userSpaceOnUse" x1="1597.1489" y1="102.6922" x2="1650.9948" y2="38.5213">
		<stop  offset="0" style="stop-color:#59B469"/>
		<stop  offset="0.3212" style="stop-color:#59B469"/>
		<stop  offset="0.567" style="stop-color:#65B32E"/>
		<stop  offset="1" style="stop-color:#59B469"/>
	</linearGradient>
	<path class="st1" d="M1647.81,49.77l-33.14,67.62c0.78-3.08,0.5-6.44-1.01-9.52l-12.79-26.1l21.73-44.35
		c2.44-4.97,7.43-7.86,12.62-7.86c2.07,0,4.17,0.46,6.16,1.43C1648.34,34.4,1651.22,42.81,1647.81,49.77z"/>
</g>
<circle class="st2" cx="1569.65" cy="54.57" r="10.14"/>
<g>
	<path class="st2" d="M1542.82,140.53l9.46,28.62h0.37l9.45-28.62h7.24l-12.82,36.36h-8.13l-12.8-36.36H1542.82z"/>
	<path class="st2" d="M1607.77,146.06v-5.52h29.01v5.52h-11.24v30.84h-6.53v-30.84H1607.77z"/>
	<path class="st2" d="M1642.35,176.9v-36.36h23.65v5.52h-17.06v9.87h15.84v5.52h-15.84v9.93h17.21v5.52H1642.35z"/>
	<path class="st3" d="M1581.07,150.94c-0.42-0.42-0.67-0.99-0.67-1.63v-3.43c0-4.59,3.72-8.31,8.31-8.31h0.27
		c4.42,0,8.01,3.59,8.01,8.01v3.73c0,0.71-0.32,1.35-0.83,1.77"/>
	<circle class="st3" cx="1588.69" cy="165.52" r="17.26"/>
</g>
<g>
	<linearGradient id="SVGID_3_" gradientUnits="userSpaceOnUse" x1="1561.7076" y1="74.5297" x2="1617.8906" y2="116.09">
		<stop  offset="8.379889e-03" style="stop-color:#AEDBE5;stop-opacity:0.9216"/>
		<stop  offset="0.5302" style="stop-color:#A9D2A4"/>
		<stop  offset="0.9689" style="stop-color:#59B469"/>
	</linearGradient>
	<path class="st4" d="M1614.67,117.39c-0.95,3.89-3.56,7.35-7.44,9.25c-6.96,3.42-15.36,0.54-18.77-6.42l-16.01-32.66
		c-3.41-6.96-0.53-15.36,6.43-18.78c1.99-0.97,4.09-1.43,6.16-1.43c5.19,0,10.18,2.89,12.62,7.86l3.21,6.56l12.79,26.1
		C1615.17,110.95,1615.45,114.31,1614.67,117.39z"/>
	<linearGradient id="SVGID_4_" gradientUnits="userSpaceOnUse" x1="1597.1489" y1="102.6922" x2="1650.9948" y2="38.5213">
		<stop  offset="0" style="stop-color:#59B469"/>
		<stop  offset="0.3212" style="stop-color:#59B469"/>
		<stop  offset="0.567" style="stop-color:#65B32E"/>
		<stop  offset="1" style="stop-color:#59B469"/>
	</linearGradient>
	<path class="st5" d="M1647.81,49.77l-33.14,67.62c0.78-3.08,0.5-6.44-1.01-9.52l-12.79-26.1l21.73-44.35
		c2.44-4.97,7.43-7.86,12.62-7.86c2.07,0,4.17,0.46,6.16,1.43C1648.34,34.4,1651.22,42.81,1647.81,49.77z"/>
</g>
<circle class="st2" cx="1569.65" cy="54.57" r="10.14"/>
<g>
	<path class="st2" d="M1542.82,140.53l9.46,28.62h0.37l9.45-28.62h7.24l-12.82,36.36h-8.13l-12.8-36.36H1542.82z"/>
	<path class="st2" d="M1607.77,146.06v-5.52h29.01v5.52h-11.24v30.84h-6.53v-30.84H1607.77z"/>
	<path class="st2" d="M1642.35,176.9v-36.36h23.65v5.52h-17.06v9.87h15.84v5.52h-15.84v9.93h17.21v5.52H1642.35z"/>
	<path class="st3" d="M1581.07,150.94c-0.42-0.42-0.67-0.99-0.67-1.63v-3.43c0-4.59,3.72-8.31,8.31-8.31h0.27
		c4.42,0,8.01,3.59,8.01,8.01v3.73c0,0.71-0.32,1.35-0.83,1.77"/>
	<circle class="st3" cx="1588.69" cy="165.52" r="17.26"/>
</g>
<g>
	<g>
		<linearGradient id="SVGID_5_" gradientUnits="userSpaceOnUse" x1="60.8391" y1="68.36" x2="117.022" y2="109.9203">
			<stop  offset="8.379889e-03" style="stop-color:#AEDBE5;stop-opacity:0.9216"/>
			<stop  offset="0.5302" style="stop-color:#A9D2A4"/>
			<stop  offset="0.9689" style="stop-color:#59B469"/>
		</linearGradient>
		<path class="st6" d="M113.8,111.22c-0.95,3.89-3.56,7.35-7.44,9.25c-6.96,3.42-15.36,0.54-18.77-6.42L71.58,81.39
			c-3.41-6.96-0.53-15.36,6.43-18.78c1.99-0.97,4.09-1.43,6.16-1.43c5.19,0,10.18,2.89,12.62,7.86L100,75.6l12.79,26.1
			C114.3,104.78,114.58,108.14,113.8,111.22z"/>
		<linearGradient id="SVGID_6_" gradientUnits="userSpaceOnUse" x1="96.2803" y1="96.5224" x2="150.1261" y2="32.3515">
			<stop  offset="0" style="stop-color:#59B469"/>
			<stop  offset="0.3212" style="stop-color:#59B469"/>
			<stop  offset="0.567" style="stop-color:#65B32E"/>
			<stop  offset="1" style="stop-color:#59B469"/>
		</linearGradient>
		<path class="st7" d="M146.94,43.6l-33.14,67.62c0.78-3.08,0.5-6.44-1.01-9.52L100,75.6l21.73-44.35
			c2.44-4.97,7.43-7.86,12.62-7.86c2.07,0,4.17,0.46,6.16,1.43C147.47,28.23,150.35,36.64,146.94,43.6z"/>
	</g>
	<circle class="st2" cx="68.78" cy="48.4" r="10.14"/>
	<g>
		<path class="st2" d="M41.95,134.36l9.46,28.62h0.37l9.45-28.62h7.24l-12.82,36.36h-8.13l-12.8-36.36H41.95z"/>
		<path class="st2" d="M106.9,139.89v-5.52h29.01v5.52h-11.24v30.84h-6.53v-30.84H106.9z"/>
		<path class="st2" d="M141.49,170.73v-36.36h23.65v5.52h-17.06v9.87h15.84v5.52h-15.84v9.93h17.21v5.52H141.49z"/>
		<path class="st3" d="M80.21,144.77c-0.42-0.42-0.67-0.99-0.67-1.63v-3.43c0-4.59,3.72-8.31,8.31-8.31h0.27
			c4.42,0,8.01,3.59,8.01,8.01v3.73c0,0.71-0.32,1.35-0.83,1.77"/>
		<circle class="st3" cx="87.82" cy="159.35" r="17.26"/>
	</g>
</g>
</svg>
